{"title":"18+ E-Demon 2018 Movies 720p HDRip x264 5.1 with Sample ☻rDX☻","magnet":"magnet:?xt=urn:btih:d7e0c7e3b5b04c3824dbc14b0aad07f0ad61b131&dn=18%2B+E-Demon+2018+Movies+720p+HDRip+x264+5.1+with+Sample+%E2%98%BBrDX%E2%98%BB&tr=udp%3A%2F%2Ftracker.leechers-paradise.org%3A6969&tr=udp%3A%2F%2Fzer0day.ch%3A1337&tr=udp%3A%2F%2Fopen.demonii.com%3A1337&tr=udp%3A%2F%2Ftracker.coppersurfer.tk%3A6969&tr=udp%3A%2F%2Fexodus.desync.com%3A6969","uploader":"basicssom","categoryP":"video","categoryS":"hd___movies","size":"931433225","seeders":"22","leechers":"15","description":"18+ E-Demon 2018 Movies 720p HDRip x264 5.1 with Sample &#x263B;rDX&#x263B;\r\n\r\nSCREEN SHOTS &amp; POSTER:\r\n   <a href=\"\nhttp://iphonehosting.eu/2018/9/hotel/index.html\" rel=\"nofollow\" target=\"_NEW\">\nhttp://iphonehosting.eu/2018/9/hotel/index.html</a> <a href=\"\nhttp://iphonehosting.eu/2018/9/hotel/1.html\" rel=\"nofollow\" target=\"_NEW\">\nhttp://iphonehosting.eu/2018/9/hotel/1.html</a> <a href=\"\nhttp://iphonehosting.eu/2018/9/hotel/2.html\" rel=\"nofollow\" target=\"_NEW\">\nhttp://iphonehosting.eu/2018/9/hotel/2.html</a>   <a href=\"\nhttp://iphonehosting.eu/2018/9/hotel/3.html\" rel=\"nofollow\" target=\"_NEW\">\nhttp://iphonehosting.eu/2018/9/hotel/3.html</a>   <a href=\"\nhttp://iphonehosting.eu/2018/9/hotel/4.html\" rel=\"nofollow\" target=\"_NEW\">\nhttp://iphonehosting.eu/2018/9/hotel/4.html</a>   <a href=\"\nhttp://iphonehosting.eu/2018/9/hotel/5.html\" rel=\"nofollow\" target=\"_NEW\">\nhttp://iphonehosting.eu/2018/9/hotel/5.html</a>   <a href=\"\nhttp://iphonehosting.eu/2018/9/hotel/6.html\" rel=\"nofollow\" target=\"_NEW\">\nhttp://iphonehosting.eu/2018/9/hotel/6.html</a>   <a href=\"\nhttp://iphonehosting.eu/2018/9/hotel/7.html\" rel=\"nofollow\" target=\"_NEW\">\nhttp://iphonehosting.eu/2018/9/hotel/7.html</a>   <a href=\"\nhttp://iphonehosting.eu/2018/9/hotel/8.html\" rel=\"nofollow\" target=\"_NEW\">\nhttp://iphonehosting.eu/2018/9/hotel/8.html</a>   <a href=\"\nhttp://iphonehosting.eu/2018/9/hotel/9.html\" rel=\"nofollow\" target=\"_NEW\">\nhttp://iphonehosting.eu/2018/9/hotel/9.html</a>   <a href=\"\nhttp://iphonehosting.eu/2018/9/hotel/10.html\" rel=\"nofollow\" target=\"_NEW\">\nhttp://iphonehosting.eu/2018/9/hotel/10.html</a>\r\n\r\nFile size                                : 880 MiB\r\nDuration                                 : 1 h 25 min\r\nOverall bit rate                         : 1 435 kb/s\r\nMovie name                               : 18+ E-Demon 2018 Movies 720p HDRip x264 5.1 &#x263B;rDX&#x263B;\r\n\r\nVideo\r\nID                                       : 2\r\nFormat                                   : AVC\r\nFormat/Info                              : Advanced Video Codec\r\nFormat profile                           : High@L4.1\r\nFormat settings, CABAC                   : Yes\r\nFormat settings, ReFrames                : 4 frames\r\nCodec ID                                 : V_MPEG4/ISO/AVC\r\nDuration                                 : 1 h 25 min\r\nBit rate                                 : 1 050 kb/s\r\nWidth                                    : 1 280 pixels\r\nHeight                                   : 714 pixels\r\nDisplay aspect ratio                     : 16:9\r\nOriginal display aspect ratio            : 16:9\r\nFrame rate mode                          : Constant\r\nFrame rate                               : 23.976 (24000/1001) FPS\r\nColor space                              : YUV\r\nChroma subsampling                       : 4:2:0\r\nBit depth                                : 8 bits\r\nScan type                                : Progressive\r\nBits/(Pixel*Frame)                       : 0.048\r\nStream size                              : 627 MiB (71%)\r\nTitle                                    : &#x263B;rDX&#x263B;\r\nWriting library                          : x264\r\n\r\nAudio\r\nID                                       : 1\r\nFormat                                   : AC-3\r\nFormat/Info                              : Audio Coding 3\r\nMode extension                           : CM (complete main)\r\nFormat settings, Endianness              : Big\r\nCodec ID                                 : A_AC3\r\nDuration                                 : 1 h 25 min\r\nBit rate mode                            : Constant\r\nBit rate                                 : 384 kb/s\r\nChannel(s)                               : 6 channels\r\nChannel positions                        : Front: L C R, Side: L R, LFE\r\nSampling rate                            : 48.0 kHz\r\nFrame rate                               : 31.250 FPS (1536 spf)\r\nBit depth                                : 16 bits\r\nCompression mode                         : Lossy\r\nDelay relative to video                  : -43 ms\r\nStream size                              : 236 MiB (27%)\r\nTitle                                    : &#x263B;rDX&#x263B;\r\nDefault                                  : Yes\r\nForced                                   : No\r\n <a href=\"\nhttps://www.imdb.com/title/tt7933282/\" rel=\"nofollow\" target=\"_NEW\">\nhttps://www.imdb.com/title/tt7933282/</a>","last_updated":"2018-09-15T12:22:28.925Z","parsed":{"xt":"urn:btih:d7e0c7e3b5b04c3824dbc14b0aad07f0ad61b131","dn":"18  E-Demon 2018 Movies 720p HDRip x264 5.1 with Sample ☻rDX☻","tr":["udp://exodus.desync.com:6969","udp://open.demonii.com:1337","udp://tracker.coppersurfer.tk:6969","udp://tracker.leechers-paradise.org:6969","udp://zer0day.ch:1337"],"infoHash":"d7e0c7e3b5b04c3824dbc14b0aad07f0ad61b131","infoHashBuffer":{"type":"Buffer","data":[215,224,199,227,181,176,76,56,36,219,193,75,10,173,7,240,173,97,177,49]},"name":"18  E-Demon 2018 Movies 720p HDRip x264 5.1 with Sample ☻rDX☻","announce":["udp://exodus.desync.com:6969","udp://open.demonii.com:1337","udp://tracker.coppersurfer.tk:6969","udp://tracker.leechers-paradise.org:6969","udp://zer0day.ch:1337"],"urlList":[]}}